<svg width="512" height="512" viewBox="0 0 512 512" fill="none" xmlns="http://www.w3.org/2000/svg">
<g clip-path="url(#clip0)">
<path d="M442.51 106.977C397.698 62.1655 338.117 37.4867 274.744 37.4867C257.356 37.4867 240.012 39.4087 223.053 43.1947L216.26 17.7029C214.553 11.3309 210.307 5.89595 204.612 2.79298C199.082 -0.222001 192.73 -0.816996 186.728 1.11199C170.706 6.26295 155.083 12.8439 140.201 20.7068C132.716 16.6379 123.855 16.5219 116.418 20.7848C72.8874 45.1726 45.1746 72.8864 20.7888 116.414C16.5229 123.852 16.6399 132.714 20.7088 140.2C12.8479 155.08 6.26694 170.703 1.11398 186.726V186.727C-0.816002 192.729 -0.219006 199.081 2.79497 204.612C5.89895 210.307 11.3329 214.552 17.7169 216.263L43.1957 223.052C39.4107 240.012 37.4877 257.357 37.4877 274.743C37.4877 338.116 62.1665 397.697 106.978 442.509C151.791 487.321 211.371 512 274.745 512C338.118 512 397.699 487.32 442.511 442.509C487.323 397.697 512.002 338.116 512.002 274.743C512.002 211.369 487.321 151.79 442.51 106.977V106.977ZM188.79 131.408C188.734 131.44 188.678 131.473 188.623 131.507C177.001 138.522 166.226 146.962 156.594 156.593C146.964 166.224 138.523 177 131.508 188.622C131.475 188.678 131.442 188.733 131.409 188.79C122.879 203.564 113.316 209.626 99.8092 208.178C109.172 183.681 123.774 161.129 142.452 142.451C161.129 123.773 183.68 109.172 208.179 99.8082C209.626 113.314 203.564 122.877 188.79 131.408V131.408ZM20.3548 195.041C19.9708 194.337 19.9048 193.619 20.1518 192.849C25.5578 176.037 32.6517 159.702 41.2387 144.294C43.4147 140.39 42.7347 135.516 39.5747 132.355C37.6307 130.411 37.0957 128.167 38.1427 126.354C38.1647 126.316 38.1857 126.278 38.2077 126.239C60.9485 85.6323 85.6293 60.9495 126.238 38.2077C126.276 38.1867 126.314 38.1647 126.352 38.1437C128.167 37.0957 130.411 37.6317 132.354 39.5757C135.514 42.7377 140.388 43.4177 144.293 41.2407C159.702 32.6527 176.038 25.5588 192.848 20.1538C193.618 19.9058 194.335 19.9708 195.041 20.3558C195.951 20.8518 196.644 21.7718 196.937 22.8678L211.483 77.4534C180.338 87.4533 151.595 105.023 128.308 128.31C105.021 151.598 87.4513 180.34 77.4524 211.485L22.8778 196.943C21.7708 196.644 20.8508 195.952 20.3548 195.041V195.041ZM274.744 492C154.948 492 57.4865 394.539 57.4865 274.743C57.4865 259.094 59.1875 243.482 62.5365 228.206L74.2844 231.336C75.5814 231.684 76.9084 231.849 78.2404 231.849C82.7033 231.849 87.1993 229.982 90.6763 226.89C95.1393 227.855 99.4372 228.348 103.559 228.348C122.201 228.348 137.326 218.491 148.678 198.877C154.849 188.669 162.27 179.201 170.736 170.735C179.203 162.269 188.671 154.847 198.877 148.677C222.83 134.815 232.222 115.323 226.89 90.6713C230.903 86.1593 232.851 79.9284 231.342 74.2974L228.208 62.5355C243.484 59.1865 259.096 57.4855 274.745 57.4855C394.541 57.4855 492.002 154.947 492.002 274.743C492.002 394.539 394.54 492 274.744 492Z" fill="#1E90FF"/>
<path d="M82.7855 163.816C85.5255 159.021 83.8595 152.913 79.0645 150.172C74.2695 147.431 68.1595 149.099 65.4195 153.893L65.4155 153.9C62.6755 158.696 64.3435 164.8 69.1385 167.541C70.7025 168.436 72.4065 168.859 74.0885 168.859C77.5625 168.859 80.9385 167.047 82.7855 163.816Z" fill="#1E90FF"/>
<path d="M158.869 84.1005C160.658 84.1005 162.469 83.6215 164.103 82.6155C168.807 79.7205 170.273 73.5615 167.378 68.8575C164.483 64.1535 158.323 62.6855 153.62 65.5825L153.614 65.5865C148.91 68.4815 147.447 74.6385 150.342 79.3425C152.231 82.4115 155.51 84.1005 158.869 84.1005Z" fill="#1E90FF"/>
<path d="M274.744 154.744C208.576 154.744 154.745 208.575 154.745 274.743C154.745 322.425 182.981 365.593 226.678 384.717C227.983 385.288 229.343 385.559 230.682 385.559C234.534 385.558 238.205 383.32 239.849 379.566C242.063 374.506 239.757 368.609 234.697 366.395C198.277 350.456 174.745 314.481 174.745 274.744C174.745 219.603 219.604 174.745 274.744 174.745C329.883 174.745 374.743 219.603 374.743 274.744C374.743 314.479 351.213 350.453 314.798 366.392C309.738 368.607 307.432 374.503 309.647 379.563C311.862 384.623 317.756 386.927 322.817 384.714C366.511 365.589 394.744 322.422 394.744 274.743C394.743 208.575 340.911 154.744 274.744 154.744V154.744Z" fill="#1E90FF"/>
<path d="M284.744 204.745C284.744 199.223 280.267 194.745 274.744 194.745H274.737C269.214 194.745 264.74 199.223 264.74 204.745C264.74 210.267 269.221 214.745 274.744 214.745C280.267 214.745 284.744 210.267 284.744 204.745Z" fill="#1E90FF"/>
<path d="M235.554 205.043L235.548 205.046C230.533 207.36 228.348 213.301 230.662 218.316C232.35 221.973 235.969 224.127 239.749 224.127C241.152 224.127 242.578 223.83 243.935 223.204C248.95 220.89 251.139 214.948 248.824 209.933C246.51 204.918 240.566 202.729 235.554 205.043V205.043Z" fill="#1E90FF"/>
<path d="M219.67 231.424C215.075 228.361 208.867 229.602 205.802 234.197L205.799 234.203C202.735 238.798 203.979 245.004 208.574 248.067C210.278 249.204 212.204 249.747 214.11 249.747C217.343 249.747 220.516 248.183 222.443 245.291C225.508 240.697 224.266 234.488 219.67 231.424V231.424Z" fill="#1E90FF"/>
<path d="M214.745 274.744C214.745 269.222 210.268 264.744 204.745 264.744C199.222 264.744 194.745 269.222 194.745 274.744V274.751C194.745 280.273 199.222 284.748 204.745 284.748C210.268 284.748 214.745 280.266 214.745 274.744Z" fill="#1E90FF"/>
<path d="M205.183 314.222C206.935 317.725 210.464 319.749 214.131 319.749C215.634 319.749 217.161 319.408 218.597 318.689C223.537 316.219 225.537 310.21 223.068 305.27C220.598 300.331 214.592 298.328 209.651 300.797C204.711 303.267 202.709 309.274 205.179 314.214L205.183 314.222Z" fill="#1E90FF"/>
<path d="M244.986 326.846C240.281 323.951 234.123 325.417 231.228 330.121C228.333 334.825 229.8 340.984 234.503 343.879L234.509 343.883C236.143 344.889 237.951 345.367 239.738 345.367C243.095 345.367 246.375 343.675 248.264 340.605C251.159 335.902 249.689 329.741 244.986 326.846V326.846Z" fill="#1E90FF"/>
<path d="M274.751 354.741C280.274 354.741 284.748 350.263 284.748 344.741C284.748 339.219 280.267 334.741 274.744 334.741C269.221 334.741 264.744 339.219 264.744 344.741C264.744 350.263 269.221 354.741 274.744 354.741H274.751Z" fill="#1E90FF"/>
<path d="M314.984 343.879L314.99 343.875C319.694 340.98 321.157 334.823 318.262 330.119C315.367 325.416 309.206 323.952 304.501 326.846C299.797 329.741 298.331 335.9 301.226 340.604C303.115 343.673 306.394 345.364 309.752 345.364C311.54 345.364 313.35 344.885 314.984 343.879V343.879Z" fill="#1E90FF"/>
<path d="M340.404 301.102C335.634 298.321 329.509 299.933 326.726 304.704C323.943 309.475 325.555 315.599 330.325 318.381C331.909 319.306 333.643 319.745 335.354 319.745C338.794 319.745 342.143 317.968 344.001 314.782L344.004 314.776C346.787 310.005 345.174 303.884 340.404 301.102V301.102Z" fill="#1E90FF"/>
<path d="M354.741 274.744V274.736C354.741 269.214 350.264 264.74 344.741 264.74C339.218 264.74 334.741 269.221 334.741 274.744C334.741 280.267 339.218 284.744 344.741 284.744C350.264 284.744 354.741 280.266 354.741 274.744V274.744Z" fill="#1E90FF"/>
<path d="M343.68 234.191C340.617 229.596 334.411 228.355 329.814 231.42C325.219 234.483 323.979 240.695 327.042 245.29C328.969 248.181 332.14 249.744 335.372 249.744C337.278 249.744 339.205 249.2 340.91 248.063C345.505 245 346.747 238.791 343.683 234.196L343.68 234.191Z" fill="#1E90FF"/>
<path d="M309.733 224.125C313.09 224.125 316.37 222.435 318.259 219.365C321.154 214.661 319.687 208.502 314.984 205.607L314.978 205.603C310.275 202.708 304.118 204.177 301.223 208.88C298.328 213.584 299.798 219.745 304.502 222.64C306.136 223.646 307.945 224.125 309.733 224.125V224.125Z" fill="#1E90FF"/>
<path d="M234.744 274.744C234.744 296.8 252.688 314.744 274.744 314.744C296.8 314.744 314.744 296.8 314.744 274.744C314.744 252.687 296.8 234.743 274.744 234.743C252.688 234.743 234.744 252.687 234.744 274.744V274.744ZM274.744 254.743C285.772 254.743 294.744 263.716 294.744 274.744C294.744 285.772 285.772 294.744 274.744 294.744C263.716 294.744 254.744 285.772 254.744 274.744C254.744 263.716 263.716 254.743 274.744 254.743Z" fill="#1E90FF"/>
<path d="M260.43 130.908C262.005 131.817 263.724 132.25 265.421 132.25C268.877 132.25 272.238 130.456 274.09 127.248L292.718 94.9834C295.48 90.2004 293.841 84.0854 289.058 81.3234C284.277 78.5634 278.16 80.2004 275.398 84.9834L256.77 117.248C254.008 122.031 255.646 128.146 260.43 130.908V130.908Z" fill="#1E90FF"/>
<path d="M122.238 294.059C125.694 294.059 129.055 292.265 130.907 289.057C133.669 284.274 132.03 278.159 127.247 275.397L94.9824 256.769C90.2014 254.008 84.0844 255.647 81.3224 260.429C78.5604 265.212 80.1994 271.327 84.9824 274.089L117.247 292.717C118.822 293.626 120.542 294.059 122.238 294.059V294.059Z" fill="#1E90FF"/>
<path d="M147.335 349.057H110.079C104.556 349.057 100.079 353.535 100.079 359.057C100.079 364.579 104.556 369.057 110.079 369.057H147.335C152.858 369.057 157.335 364.579 157.335 359.057C157.335 353.535 152.858 349.057 147.335 349.057Z" fill="#1E90FF"/>
<path d="M201.563 402.805L169.298 421.433C164.515 424.194 162.876 430.31 165.638 435.093C167.49 438.301 170.851 440.095 174.307 440.095C176.003 440.095 177.723 439.662 179.298 438.753L211.563 420.125C216.346 417.364 217.985 411.248 215.223 406.465C212.461 401.682 206.345 400.043 201.563 402.805V402.805Z" fill="#1E90FF"/>
<path d="M289.058 418.58C284.277 415.82 278.16 417.458 275.398 422.24L256.77 454.505C254.008 459.288 255.647 465.403 260.43 468.165C262.005 469.074 263.724 469.507 265.421 469.507C268.877 469.507 272.238 467.713 274.09 464.505L292.718 432.24C295.479 427.457 293.841 421.341 289.058 418.58V418.58Z" fill="#1E90FF"/>
<path d="M359.057 392.152C353.534 392.152 349.057 396.63 349.057 402.152V439.408C349.057 444.93 353.534 449.408 359.057 449.408C364.58 449.408 369.057 444.93 369.057 439.408V402.152C369.057 396.629 364.58 392.152 359.057 392.152Z" fill="#1E90FF"/>
<path d="M420.126 337.925C417.364 333.143 411.249 331.502 406.466 334.265C401.683 337.027 400.044 343.142 402.806 347.925L421.434 380.19C423.286 383.398 426.647 385.192 430.103 385.192C431.799 385.192 433.519 384.759 435.094 383.85C439.877 381.088 441.516 374.973 438.754 370.19L420.126 337.925Z" fill="#1E90FF"/>
<path d="M464.504 275.397L432.239 256.77C427.455 254.01 421.34 255.647 418.578 260.43C415.817 265.213 417.456 271.329 422.239 274.09L454.504 292.717C456.079 293.626 457.798 294.059 459.495 294.059C462.951 294.059 466.313 292.265 468.165 289.057C470.926 284.274 469.287 278.158 464.504 275.397Z" fill="#1E90FF"/>
<path d="M439.408 200.43C444.931 200.43 449.408 195.952 449.408 190.43C449.408 184.908 444.931 180.43 439.408 180.43H402.152C396.629 180.43 392.152 184.908 392.152 190.43C392.152 195.952 396.629 200.43 402.152 200.43H439.408Z" fill="#1E90FF"/>
<path d="M342.934 148.023C344.63 148.023 346.35 147.59 347.925 146.681L380.19 128.053C384.973 125.292 386.612 119.176 383.85 114.393C381.088 109.61 374.972 107.971 370.19 110.733L337.925 129.361C333.142 132.122 331.503 138.238 334.265 143.021C336.117 146.229 339.478 148.023 342.934 148.023V148.023Z" fill="#1E90FF"/>
<path d="M274.751 394.742C280.274 394.742 284.751 390.264 284.751 384.742C284.751 379.22 280.274 374.742 274.751 374.742H274.744C269.221 374.742 264.748 379.22 264.748 384.742C264.748 390.264 269.228 394.742 274.751 394.742Z" fill="#1E90FF"/>
</g>
<defs>
<clipPath id="clip0">
<rect width="512" height="512" fill="white"/>
</clipPath>
</defs>
</svg>
