<svg width="496" height="496" viewBox="0 0 496 496" fill="none" xmlns="http://www.w3.org/2000/svg">
<path d="M115.608 112.184L103.744 101.456C97.68 108.16 89.024 112 80 112C62.352 112 48 97.648 48 80C48 62.352 62.352 48 80 48C97.648 48 112 62.352 112 80C112 84.656 111.024 89.144 109.104 93.336L123.64 100.008C126.536 93.712 128 86.976 128 80C128 53.528 106.472 32 80 32C53.528 32 32 53.528 32 80C32 106.472 53.528 128 80 128C93.536 128 106.52 122.232 115.608 112.184Z" fill="#1E90FF"/>
<path d="M32 416C32 442.472 53.528 464 80 464C106.472 464 128 442.472 128 416C128 389.528 106.472 368 80 368C53.528 368 32 389.528 32 416ZM112 416C112 433.648 97.648 448 80 448C62.352 448 48 433.648 48 416C48 398.352 62.352 384 80 384C97.648 384 112 398.352 112 416Z" fill="#1E90FF"/>
<path d="M160 80C160 35.888 124.112 0 80 0C35.888 0 0 35.888 0 80C0 105.288 11.888 128.896 32 143.992V352.008C11.888 367.104 0 390.712 0 416C0 460.112 35.888 496 80 496C124.112 496 160 460.112 160 416C160 390.712 148.112 367.104 128 352.008V143.992C148.112 128.896 160 105.288 160 80ZM115.552 362.792C133.36 374.712 144 394.6 144 416C144 451.288 115.288 480 80 480C44.712 480 16 451.288 16 416C16 394.6 26.64 374.712 44.448 362.792L48 360.416V135.584L44.448 133.208C26.64 121.288 16 101.4 16 80C16 44.712 44.712 16 80 16C115.288 16 144 44.712 144 80C144 101.4 133.36 121.288 115.552 133.208L112 135.584V360.416L115.552 362.792Z" fill="#1E90FF"/>
<path d="M464 352.008V143.992C484.112 128.896 496 105.288 496 80C496 35.888 460.112 0 416 0C371.888 0 336 35.888 336 80C336 105.288 347.888 128.896 368 143.992V352.008C347.888 367.104 336 390.712 336 416C336 460.112 371.888 496 416 496C460.112 496 496 460.112 496 416C496 390.712 484.112 367.104 464 352.008ZM416 480C380.712 480 352 451.288 352 416C352 394.6 362.64 374.712 380.448 362.792L384 360.416V135.584L380.448 133.208C362.64 121.288 352 101.4 352 80C352 44.712 380.712 16 416 16C451.288 16 480 44.712 480 80C480 101.4 469.36 121.288 451.552 133.208L448 135.584V360.416L451.552 362.792C469.36 374.712 480 394.6 480 416C480 451.288 451.288 480 416 480Z" fill="#1E90FF"/>
<path d="M88 144H72V160H88V144Z" fill="#1E90FF"/>
<path d="M88 192H72V208H88V192Z" fill="#1E90FF"/>
<path d="M88 240H72V256H88V240Z" fill="#1E90FF"/>
<path d="M88 288H72V304H88V288Z" fill="#1E90FF"/>
<path d="M88 336H72V352H88V336Z" fill="#1E90FF"/>
<path d="M280 160C280 142.352 265.648 128 248 128C230.352 128 216 142.352 216 160C216 177.648 230.352 192 248 192C265.648 192 280 177.648 280 160ZM248 176C239.176 176 232 168.824 232 160C232 151.176 239.176 144 248 144C256.824 144 264 151.176 264 160C264 168.824 256.824 176 248 176Z" fill="#1E90FF"/>
<path d="M216 432C216 449.648 230.352 464 248 464C265.648 464 280 449.648 280 432C280 414.352 265.648 400 248 400C230.352 400 216 414.352 216 432ZM264 432C264 440.824 256.824 448 248 448C239.176 448 232 440.824 232 432C232 423.176 239.176 416 248 416C256.824 416 264 423.176 264 432Z" fill="#1E90FF"/>
<path d="M312 160C312 124.712 283.288 96 248 96C212.712 96 184 124.712 184 160C184 182.8 196.408 204 216 215.36V376.64C196.408 388 184 409.2 184 432C184 467.288 212.712 496 248 496C283.288 496 312 467.288 312 432C312 409.2 299.592 388 280 376.64V215.36C299.592 204 312 182.8 312 160ZM268.56 388.688C285.232 396.616 296 413.616 296 432C296 458.472 274.472 480 248 480C221.528 480 200 458.472 200 432C200 413.616 210.768 396.616 227.44 388.688L232 386.512V205.488L227.44 203.32C210.768 195.384 200 178.384 200 160C200 133.528 221.528 112 248 112C274.472 112 296 133.528 296 160C296 178.384 285.232 195.384 268.56 203.312L264 205.488V386.52L268.56 388.688Z" fill="#1E90FF"/>
<path d="M439.096 120L462.192 80L439.096 40H392.912L369.816 80L392.912 120H439.096ZM402.144 56H429.856L443.712 80L429.856 104H402.144L388.288 80L402.144 56Z" fill="#1E90FF"/>
<path d="M392.904 376L369.808 416L392.904 456H439.088L462.184 416L439.088 376H392.904ZM429.856 440H402.144L388.288 416L402.144 392H429.856L443.712 416L429.856 440Z" fill="#1E90FF"/>
<path d="M424 344H408V360H424V344Z" fill="#1E90FF"/>
<path d="M424 136H408V152H424V136Z" fill="#1E90FF"/>
<path d="M424 168H408V328H424V168Z" fill="#1E90FF"/>
</svg>
