<svg width="496" height="496" viewBox="0 0 496 496" fill="none" xmlns="http://www.w3.org/2000/svg">
<path d="M472 0H448H288H171.528C161.184 0 152.032 6.592 148.752 16.408L146.232 24H120C106.768 24 96 34.768 96 48V58.36C72.904 65.264 56 86.688 56 112C56 128.712 63.4 143.696 75.048 153.968C57.152 167.576 44.904 187.688 41.296 210.032C17.544 216.504 0 238.216 0 264C0 294.872 25.128 320 56 320V368H92.04C95.016 379.56 99.608 390.616 105.752 400.984L80.24 426.504L125.496 471.76L151.016 446.248C161.384 452.392 172.44 456.984 184 459.96V496H248V459.96C259.56 456.984 270.616 452.392 280.984 446.248L306.504 471.76L351.76 426.504L326.248 400.984C332.392 390.616 336.984 379.56 339.96 368H376V304H339.96C336.984 292.44 332.392 281.384 326.248 271.016L349.256 248H448V144V128H472C485.232 128 496 117.232 496 104V24C496 10.768 485.232 0 472 0ZM360 16C373.232 16 384 26.768 384 40C384 53.232 373.232 64 360 64C346.768 64 336 53.232 336 40C336 26.768 346.768 16 360 16ZM304 16H328.208C323.128 22.704 320 30.96 320 40C320 62.056 337.944 80 360 80C369.04 80 377.296 76.872 384 71.792V128H304V16ZM238.528 16C235.216 25.288 226.416 32 216 32C205.584 32 196.784 25.288 193.472 16H238.528ZM72 112C72 89.944 89.944 72 112 72C134.056 72 152 89.944 152 112C152 134.056 134.056 152 112 152C103.8 152 96.168 149.504 89.816 145.248L89.6 144.808C89.52 144.848 89.456 144.896 89.376 144.936C78.904 137.712 72 125.656 72 112ZM89.488 163.24C91.592 164.168 93.768 164.976 96 165.648V224.896C85.992 214.696 72.32 208.6 57.8 208.128C62 189.68 73.48 173.432 89.488 163.24ZM56 304C33.944 304 16 286.056 16 264C16 241.944 33.944 224 56 224C68.072 224 79.424 229.56 86.96 238.768L80.232 245.496L105.744 271.016C99.6 281.384 95.008 292.44 92.032 304H64H56ZM328 246.632L305.808 268.824L309.416 274.272C317.416 286.36 322.92 299.584 325.752 313.592L327.056 320H360V352H327.056L325.752 358.408C322.92 372.416 317.416 385.64 309.416 397.728L305.808 403.176L329.144 426.512L306.512 449.144L283.176 425.808L277.728 429.416C265.64 437.416 252.416 442.92 238.408 445.752L232 447.056V480H200V447.056L193.592 445.752C179.584 442.92 166.36 437.416 154.272 429.416L148.824 425.808L125.488 449.144L102.856 426.512L126.192 403.176L122.584 397.728C114.584 385.64 109.08 372.416 106.248 358.408L104.944 352H72V320H104.944L106.248 313.592C109.08 299.584 114.584 286.36 122.584 274.272L126.192 268.824L102.856 245.488L125.488 222.856L148.824 246.192L154.272 242.584C166.36 234.584 179.584 229.08 193.592 226.248L200 224.944V192H232V224.944L238.408 226.248C252.416 229.08 265.64 234.584 277.728 242.584L283.176 246.192L306.512 222.856L328 244.352V246.632ZM432 232H338.272L306.504 200.232L280.984 225.744C270.616 219.6 259.56 215.008 248 212.032V176H184V212.04C172.44 215.016 161.384 219.608 151.016 225.752L125.496 200.24L112 213.728V168C142.872 168 168 142.872 168 112C168 81.128 142.872 56 112 56V48C112 43.584 115.584 40 120 40H157.768L163.936 21.472C165.032 18.192 168.088 16 171.528 16H176.808C180.528 34.232 196.688 48 216 48C235.312 48 251.472 34.232 255.192 16H288V104.208C281.296 99.128 273.04 96 264 96C241.944 96 224 113.944 224 136C224 158.056 241.944 176 264 176C283.312 176 299.472 162.232 303.192 144H432V232ZM288 136C288 149.232 277.232 160 264 160C250.768 160 240 149.232 240 136C240 122.768 250.768 112 264 112C277.232 112 288 122.768 288 136ZM480 104C480 108.416 476.416 112 472 112H448V96H432V112V128H400V40C400 30.96 396.872 22.704 391.792 16H432V80H448V16H472C476.416 16 480 19.584 480 24V104Z" fill="#B6C3DD"/>
<path d="M56 240C42.768 240 32 250.768 32 264C32 277.232 42.768 288 56 288C69.232 288 80 277.232 80 264C80 250.768 69.232 240 56 240ZM56 272C51.584 272 48 268.416 48 264C48 259.584 51.584 256 56 256C60.416 256 64 259.584 64 264C64 268.416 60.416 272 56 272Z" fill="#B6C3DD"/>
<path d="M112 136C125.232 136 136 125.232 136 112C136 98.768 125.232 88 112 88C98.768 88 88 98.768 88 112C88 125.232 98.768 136 112 136ZM112 104C116.416 104 120 107.584 120 112C120 116.416 116.416 120 112 120C107.584 120 104 116.416 104 112C104 107.584 107.584 104 112 104Z" fill="#B6C3DD"/>
<path d="M216 256C171.888 256 136 291.888 136 336C136 380.112 171.888 416 216 416C231.168 416 245.944 411.728 258.728 403.64L250.168 390.128C239.952 396.584 228.144 400 216 400C180.712 400 152 371.288 152 336C152 300.712 180.712 272 216 272C251.288 272 280 300.712 280 336C280 353.008 273.4 369.016 261.416 381.096L272.776 392.36C287.752 377.272 296 357.256 296 336C296 291.888 260.112 256 216 256Z" fill="#B6C3DD"/>
<path d="M216 288C189.528 288 168 309.528 168 336C168 362.472 189.528 384 216 384C242.472 384 264 362.472 264 336C264 309.528 242.472 288 216 288ZM216 368C198.352 368 184 353.648 184 336C184 318.352 198.352 304 216 304C233.648 304 248 318.352 248 336C248 353.648 233.648 368 216 368Z" fill="#B6C3DD"/>
</svg>
