<svg width="488" height="488" viewBox="0 0 488 488" fill="none" xmlns="http://www.w3.org/2000/svg">
<path d="M188 128H185.16C201.504 114.792 212 94.608 212 72C212 32.296 179.704 0 140 0C100.296 0 68 32.296 68 72C68 94.608 78.496 114.792 94.84 128H92C69.944 128 52 145.944 52 168V256H100V276.936L75.008 280.064L76.992 295.936L100 293.064V308.944L75.008 312.072L76.992 327.944L100 325.064V340.944L75.008 344.072L76.992 359.944L100 357.064V374.12C85.392 385.864 76 403.84 76 424C76 459.288 104.712 488 140 488C175.288 488 204 459.288 204 424C204 403.84 194.608 385.856 180 374.12V347.064L204.992 343.936L203.008 328.064L180 330.936V315.056L204.992 311.928L203.008 296.056L180 298.936V283.056L204.992 279.928L203.008 264.056L180 266.936V256H228V168C228 145.944 210.056 128 188 128ZM84 72C84 41.128 109.128 16 140 16C170.872 16 196 41.128 196 72C196 102.872 170.872 128 140 128C109.128 128 84 102.872 84 72ZM188 424C188 450.472 166.472 472 140 472C113.528 472 92 450.472 92 424C92 397.528 113.528 376 140 376C166.472 376 188 397.528 188 424ZM164 285.056V300.936L116 306.936V291.056L164 285.056ZM116 274.936V256H164V268.936L116 274.936ZM164 317.056V332.936L116 338.936V323.056L164 317.056ZM164 349.064V364.712C156.584 361.696 148.488 360 140 360C131.512 360 123.416 361.696 116 364.712V355.064L164 349.064ZM212 208H196V224H212V240H68V224H180V208H68V168C68 154.768 78.768 144 92 144H188C201.232 144 212 154.768 212 168V208Z" fill="#B6C3DD"/>
<path d="M140 112C148.424 112 156.48 109.416 163.304 104.512L153.976 91.512C149.888 94.448 145.056 96 140 96C126.768 96 116 85.232 116 72C116 58.768 126.768 48 140 48C153.232 48 164 58.768 164 72C164 76.208 162.896 80.344 160.816 83.952L174.672 91.952C178.16 85.912 180 79.016 180 72C180 49.944 162.056 32 140 32C117.944 32 100 49.944 100 72C100 94.056 117.944 112 140 112Z" fill="#B6C3DD"/>
<path d="M140 392C122.352 392 108 406.352 108 424C108 441.648 122.352 456 140 456C157.648 456 172 441.648 172 424C172 406.352 157.648 392 140 392ZM140 440C131.176 440 124 432.824 124 424C124 415.176 131.176 408 140 408C148.824 408 156 415.176 156 424C156 432.824 148.824 440 140 440Z" fill="#B6C3DD"/>
<path d="M436 256V168C436 145.944 418.056 128 396 128H393.16C409.504 114.792 420 94.608 420 72C420 32.296 387.704 0 348 0C308.296 0 276 32.296 276 72C276 94.608 286.496 114.792 302.84 128H300C277.944 128 260 145.944 260 168V256H308V276.936L283.008 280.064L284.992 295.936L308 293.064V308.944L283.008 312.072L284.992 327.944L308 325.064V340.944L283.008 344.072L284.992 359.944L308 357.064V374.12C293.392 385.864 284 403.84 284 424C284 459.288 312.712 488 348 488C383.288 488 412 459.288 412 424C412 403.84 402.608 385.856 388 374.12V347.064L412.992 343.936L411.008 328.064L388 330.936V315.056L412.992 311.928L411.008 296.056L388 298.936V283.056L412.992 279.928L411.008 264.056L388 266.936V256H436ZM292 72C292 41.128 317.128 16 348 16C378.872 16 404 41.128 404 72C404 102.872 378.872 128 348 128C317.128 128 292 102.872 292 72ZM396 424C396 450.472 374.472 472 348 472C321.528 472 300 450.472 300 424C300 397.528 321.528 376 348 376C374.472 376 396 397.528 396 424ZM372 285.056V300.936L324 306.936V291.056L372 285.056ZM324 274.936V256H372V268.936L324 274.936ZM372 317.056V332.936L324 338.936V323.056L372 317.056ZM372 349.064V364.712C364.584 361.696 356.488 360 348 360C339.512 360 331.416 361.696 324 364.712V355.064L372 349.064ZM276 240V224H388V208H276V168C276 154.768 286.768 144 300 144H396C409.232 144 420 154.768 420 168V208H404V224H420V240H276Z" fill="#B6C3DD"/>
<path d="M348 112C370.056 112 388 94.056 388 72C388 49.944 370.056 32 348 32C325.944 32 308 49.944 308 72C308 94.056 325.944 112 348 112ZM348 48C361.232 48 372 58.768 372 72C372 85.232 361.232 96 348 96C334.768 96 324 85.232 324 72C324 58.768 334.768 48 348 48Z" fill="#B6C3DD"/>
<path d="M348 392C330.352 392 316 406.352 316 424C316 441.648 330.352 456 348 456C354.048 456 359.936 454.304 365.032 451.096L356.504 437.568C353.968 439.16 351.024 440 348 440C339.176 440 332 432.824 332 424C332 415.176 339.176 408 348 408C356.824 408 364 415.176 364 424C364 426.056 363.616 428.056 362.856 429.944L377.712 435.88C379.232 432.096 380 428.096 380 424C380 406.352 365.648 392 348 392Z" fill="#B6C3DD"/>
</svg>
