<svg width="496" height="496" viewBox="0 0 496 496" fill="none" xmlns="http://www.w3.org/2000/svg">
<path d="M456 144H312V112H336V48H320V24C320 10.768 309.232 0 296 0H264C250.768 0 240 10.768 240 24V48H160V112H184V144H104V192H155.056L176 233.888V360C176 370.416 182.712 379.216 192 382.528V408C192 421.232 202.768 432 216 432H216.936L224.936 496H271.064L279.064 432H280C293.232 432 304 421.232 304 408V382.528C313.288 379.216 320 370.416 320 360V240V232V222.336L456 190.336V144ZM256 24C256 19.592 259.592 16 264 16H296C300.408 16 304 19.592 304 24V48H256V24ZM176 96V64H320V96H232V112H296V144H200V112H216V96H176ZM256.936 480H239.064L233.064 432H262.944L256.936 480ZM304 360C304 364.408 300.408 368 296 368H240V384H288V408C288 412.408 284.408 416 280 416H216C211.592 416 208 412.408 208 408V384H224V368H200C195.592 368 192 364.408 192 360V240H208H288H304V360ZM224 224V208H272V224H224ZM392 188.96L304 209.664V224H288V192H208V224H188.944L164.944 176H120V160H392V188.96ZM440 177.664L408 185.192V160H440V177.664Z" fill="#1E90FF"/>
<path d="M96 224H72V192H56V224H32V272H0V336H16V344C16 354.416 22.712 363.216 32 366.528V466.424L51.72 496H76.28L96 466.424V366.528C105.288 363.216 112 354.416 112 344V336H128V272H96V224ZM48 240H80V272H48V240ZM80 461.576L67.72 480H60.28L48 461.576V368H80V461.576ZM112 288V320H64V336H96V344C96 348.408 92.408 352 88 352H40C35.592 352 32 348.408 32 344V336H48V320H16V288H112Z" fill="#1E90FF"/>
<path d="M464 304V256H440V224H424V256H400V304H368V368H384V376C384 386.416 390.712 395.216 400 398.528V457.888L419.056 496H444.944L464 457.888V398.528C473.288 395.216 480 386.416 480 376V368H496V304H464ZM416 272H448V304H416V272ZM448 454.112L435.056 480H428.944L416 454.112V400H448V454.112ZM480 352H432V368H464V376C464 380.408 460.408 384 456 384H408C403.592 384 400 380.408 400 376V368H416V352H384V320H480V352Z" fill="#1E90FF"/>
</svg>
