<svg width="512" height="512" viewBox="0 0 512 512" fill="none" xmlns="http://www.w3.org/2000/svg">
<path d="M452 0H60C26.9141 0 0 26.9141 0 60V452C0 485.086 26.9141 512 60 512H452C485.086 512 512 485.086 512 452V60C512 26.9141 485.086 0 452 0ZM472 452C472 463.027 463.027 472 452 472H334V326H398.027L405.488 264H334V197C334 179.898 346.898 167 364 167H409V109C397.156 107.328 374.309 105 364 105C340.676 105 317.297 114.84 299.859 131.992C281.895 149.664 272 172.812 272 197.176V264H207V326H272V472H60C48.9727 472 40 463.027 40 452V60C40 48.9727 48.9727 40 60 40H452C463.027 40 472 48.9727 472 60V452Z" fill="#1E90FF"/>
</svg>
