<svg width="284" height="134" viewBox="0 0 284 134" fill="none" xmlns="http://www.w3.org/2000/svg">
<path d="M19.296 124C16.608 124 14.208 122.992 12.096 120.976C9.984 118.96 8.928 116.512 8.928 113.632V33.568C8.928 30.784 9.984 28.384 12.096 26.368C14.208 24.256 16.608 23.2 19.296 23.2H51.984C54.96 23.2 57.408 24.256 59.328 26.368C61.344 28.384 62.352 30.784 62.352 33.568V52.288L48.96 55.312V41.776C48.96 40.432 48.48 39.232 47.52 38.176C46.656 37.12 45.456 36.592 43.92 36.592H27.504C26.16 36.592 24.96 37.12 23.904 38.176C22.848 39.232 22.32 40.432 22.32 41.776V105.424C22.32 106.96 22.848 108.208 23.904 109.168C24.96 110.128 26.16 110.608 27.504 110.608H43.92C45.456 110.608 46.656 110.128 47.52 109.168C48.48 108.208 48.96 106.96 48.96 105.424V94.912L62.352 91.744V113.632C62.352 116.512 61.344 118.96 59.328 120.976C57.408 122.992 54.96 124 51.984 124H19.296ZM90.5929 48.976L77.0569 36.736V23.2H90.5929V48.976ZM108.097 124C105.217 124 102.769 122.992 100.753 120.976C98.7368 118.864 97.7288 116.368 97.7288 113.488V101.536H111.121V105.28C111.121 106.72 111.649 107.968 112.705 109.024C113.761 109.984 115.009 110.464 116.449 110.464H119.473C120.913 110.464 122.113 109.984 123.073 109.024C124.129 107.968 124.657 106.72 124.657 105.28V99.952C124.657 98.512 124.129 97.312 123.073 96.352C122.113 95.296 120.913 94.768 119.473 94.768H108.097C105.217 94.768 102.769 93.76 100.753 91.744C98.7368 89.632 97.7288 87.136 97.7288 84.256V62.512C97.7288 59.632 98.7368 57.184 100.753 55.168C102.769 53.056 105.217 52 108.097 52H127.825C130.705 52 133.153 53.056 135.169 55.168C137.185 57.184 138.193 59.632 138.193 62.512V74.464H124.657V70.72C124.657 69.28 124.129 68.08 123.073 67.12C122.113 66.064 120.913 65.536 119.473 65.536H116.449C115.009 65.536 113.761 66.064 112.705 67.12C111.649 68.08 111.121 69.28 111.121 70.72V76.048C111.121 77.488 111.649 78.736 112.705 79.792C113.761 80.752 115.009 81.232 116.449 81.232H127.825C130.705 81.232 133.153 82.288 135.169 84.4C137.185 86.416 138.193 88.864 138.193 91.744V114.064C138.097 116.752 137.041 119.104 135.025 121.12C133.009 123.04 130.609 124 127.825 124H108.097ZM163.008 124C160.128 124 157.68 122.992 155.664 120.976C153.648 118.96 152.64 116.512 152.64 113.632V91.312L166.032 94.336V105.424C166.032 106.864 166.512 108.112 167.472 109.168C168.528 110.128 169.728 110.608 171.072 110.608H187.488C188.928 110.608 190.128 110.128 191.088 109.168C192.144 108.112 192.672 106.864 192.672 105.424V80.08C192.672 78.64 192.144 77.44 191.088 76.48C190.128 75.424 188.928 74.896 187.488 74.896H163.008C160.128 74.896 157.68 73.888 155.664 71.872C153.648 69.856 152.64 67.408 152.64 64.528V33.568C152.64 30.688 153.648 28.24 155.664 26.224C157.68 24.208 160.128 23.2 163.008 23.2H195.696C198.576 23.2 201.024 24.208 203.04 26.224C205.056 28.24 206.064 30.688 206.064 33.568V49.12L192.672 45.952V41.776C192.672 40.336 192.144 39.136 191.088 38.176C190.128 37.12 188.928 36.592 187.488 36.592H171.072C169.728 36.592 168.528 37.12 167.472 38.176C166.512 39.136 166.032 40.336 166.032 41.776V56.32C166.032 57.76 166.512 59.008 167.472 60.064C168.528 61.024 169.728 61.504 171.072 61.504H195.696C198.576 61.504 201.024 62.512 203.04 64.528C205.056 66.544 206.064 68.992 206.064 71.872V113.632C206.064 116.512 205.056 118.96 203.04 120.976C201.024 122.992 198.576 124 195.696 124H163.008ZM216.491 124V23.2H259.691C262.475 23.2 264.875 24.208 266.891 26.224C269.003 28.24 270.059 30.688 270.059 33.568V64.528C270.059 67.408 269.003 69.856 266.891 71.872C264.875 73.888 262.475 74.896 259.691 74.896H229.883V124H216.491ZM229.883 61.504H251.483C252.923 61.504 254.123 61.024 255.083 60.064C256.139 59.008 256.667 57.76 256.667 56.32V41.632C256.667 40.288 256.139 39.136 255.083 38.176C254.123 37.12 252.923 36.592 251.483 36.592H229.883V61.504Z" fill="#1E90FF"/>
</svg>
