<svg width="247" height="233" viewBox="0 0 247 233" fill="none" xmlns="http://www.w3.org/2000/svg">
<path d="M12.816 171V66.6H41.328C46.8 66.6 51.792 67.32 56.304 68.76C60.912 70.2 64.848 72.36 68.112 75.24C71.472 78.024 74.064 81.48 75.888 85.608C77.712 89.64 78.624 94.296 78.624 99.576C78.624 102.456 78.336 105.336 77.76 108.216C77.184 111 76.224 113.736 74.88 116.424C73.632 119.016 72 121.464 69.984 123.768C67.968 125.976 65.52 127.848 62.64 129.384C66.48 135.432 70.656 142.152 75.168 149.544C79.68 156.84 84.24 163.992 88.848 171H69.984C68.064 168.024 66.048 164.904 63.936 161.64C61.92 158.376 59.856 155.16 57.744 151.992C55.728 148.728 53.712 145.56 51.696 142.488C49.776 139.32 47.952 136.392 46.224 133.704H43.344H28.656V171H12.816ZM28.656 118.872H42.912C46.752 118.872 49.968 118.248 52.56 117C55.152 115.656 57.168 114.024 58.608 112.104C60.144 110.184 61.2 108.12 61.776 105.912C62.448 103.704 62.784 101.688 62.784 99.864C62.784 98.04 62.448 96.072 61.776 93.96C61.2 91.752 60.144 89.736 58.608 87.912C57.072 85.992 55.008 84.408 52.416 83.16C49.92 81.912 46.8 81.288 43.056 81.288H28.656V118.872ZM89.5455 140.904C89.5455 136.2 90.3135 131.928 91.8495 128.088C93.4815 124.152 95.6895 120.792 98.4735 118.008C101.258 115.224 104.522 113.064 108.266 111.528C112.106 109.992 116.234 109.224 120.65 109.224C123.626 109.224 126.266 109.608 128.57 110.376C130.97 111.048 132.986 111.912 134.618 112.968C136.346 113.928 137.786 115.032 138.938 116.28C140.09 117.528 140.954 118.632 141.53 119.592V59.112H153.914V171H141.53V166.536C141.53 165.96 141.578 165.336 141.674 164.664C141.77 163.896 141.818 163.272 141.818 162.792C140.858 163.944 139.706 165.096 138.362 166.248C137.114 167.304 135.626 168.312 133.898 169.272C132.17 170.232 130.154 171 127.85 171.576C125.642 172.152 123.098 172.44 120.218 172.44C115.418 172.44 111.098 171.624 107.258 169.992C103.514 168.264 100.298 166.008 97.6095 163.224C95.0175 160.344 93.0015 156.984 91.5615 153.144C90.2175 149.304 89.5455 145.224 89.5455 140.904ZM101.93 140.76C101.93 143.544 102.41 146.136 103.37 148.536C104.426 150.936 105.818 153 107.546 154.728C109.274 156.456 111.338 157.848 113.738 158.904C116.138 159.864 118.778 160.344 121.658 160.344C124.538 160.344 127.178 159.864 129.578 158.904C132.074 157.848 134.186 156.456 135.914 154.728C137.738 152.904 139.13 150.84 140.09 148.536C141.05 146.136 141.53 143.544 141.53 140.76C141.53 137.976 141.05 135.432 140.09 133.128C139.13 130.728 137.738 128.664 135.914 126.936C134.186 125.208 132.074 123.864 129.578 122.904C127.178 121.848 124.538 121.32 121.658 121.32C118.778 121.32 116.138 121.848 113.738 122.904C111.338 123.864 109.274 125.208 107.546 126.936C105.818 128.664 104.426 130.728 103.37 133.128C102.41 135.432 101.93 137.976 101.93 140.76Z" fill="#1E90FF"/>
<path d="M156.706 59.35H184.734C196.027 59.35 205.575 61.044 213.378 64.432C221.181 67.82 227.495 72.286 232.32 77.83C237.248 83.2713 240.79 89.4313 242.946 96.31C245.205 103.086 246.334 109.862 246.334 116.638C246.334 124.954 244.845 132.5 241.868 139.276C238.891 145.949 234.835 151.647 229.702 156.37C224.569 161.093 218.614 164.737 211.838 167.304C205.062 169.768 197.875 171 190.278 171H156.706V59.35ZM187.814 154.984C193.769 154.984 199.261 154.111 204.292 152.366C209.425 150.621 213.84 148.105 217.536 144.82C221.335 141.432 224.261 137.325 226.314 132.5C228.47 127.572 229.548 121.925 229.548 115.56C229.548 108.784 228.367 102.881 226.006 97.85C223.645 92.8193 220.565 88.6613 216.766 85.376C212.967 81.988 208.655 79.524 203.83 77.984C199.107 76.3413 194.282 75.52 189.354 75.52H173.492V154.984H187.814Z" fill="#1E90FF"/>
<ellipse cx="121.5" cy="141" rx="11.5" ry="11" fill="#1E90FF"/>
</svg>
