<svg width="83" height="101" viewBox="0 0 83 101" fill="none" xmlns="http://www.w3.org/2000/svg">
<path d="M11.296 101C8.608 101 6.208 99.992 4.096 97.976C1.984 95.96 0.928 93.512 0.928 90.632V10.568C0.928 7.784 1.984 5.384 4.096 3.368C6.208 1.25599 8.608 0.199993 11.296 0.199993H43.984C46.96 0.199993 49.408 1.25599 51.328 3.368C53.344 5.384 54.352 7.784 54.352 10.568V29.288L40.96 32.312V18.776C40.96 17.432 40.48 16.232 39.52 15.176C38.656 14.12 37.456 13.592 35.92 13.592H19.504C18.16 13.592 16.96 14.12 15.904 15.176C14.848 16.232 14.32 17.432 14.32 18.776V82.424C14.32 83.96 14.848 85.208 15.904 86.168C16.96 87.128 18.16 87.608 19.504 87.608H35.92C37.456 87.608 38.656 87.128 39.52 86.168C40.48 85.208 40.96 83.96 40.96 82.424V71.912L54.352 68.744V90.632C54.352 93.512 53.344 95.96 51.328 97.976C49.408 99.992 46.96 101 43.984 101H11.296ZM82.5929 25.976L69.0569 13.736V0.199993H82.5929V25.976Z" fill="#1E90FF"/>
</svg>
