<svg width="30" height="31" viewBox="0 0 30 31" fill="none" xmlns="http://www.w3.org/2000/svg">
<path fill-rule="evenodd" clip-rule="evenodd" d="M18.0912 21.5015C16.2773 22.6098 14.1359 23.25 11.8421 23.25C5.30189 23.25 0 18.0453 0 11.625C0 5.20469 5.30189 0 11.8421 0C18.3823 0 23.6842 5.20469 23.6842 11.625C23.6842 14.6718 22.4902 17.4449 20.5364 19.5179L29.5375 28.354C30.1542 28.9593 30.1542 29.9407 29.5375 30.546C28.9209 31.1513 27.9212 31.1513 27.3046 30.546L18.0912 21.5015ZM20.5263 11.625C20.5263 16.3332 16.6383 20.15 11.8421 20.15C7.04595 20.15 3.15789 16.3332 3.15789 11.625C3.15789 6.91677 7.04595 3.1 11.8421 3.1C16.6383 3.1 20.5263 6.91677 20.5263 11.625Z" fill="white"/>
</svg>
