<svg width="496" height="496" viewBox="0 0 496 496" fill="none" xmlns="http://www.w3.org/2000/svg">
<path d="M365.008 0H130.992C57.536 0 0 57.536 0 130.992V365.008C0 438.464 57.536 496 130.992 496H365.008C438.464 496 496 438.464 496 365.008V130.992C496 57.536 438.448 0 365.008 0ZM464 365.008C464 420.528 420.512 464 365.008 464H130.992C75.488 464 32 420.512 32 365.008V130.992C32 75.488 75.488 32 130.992 32H365.008C420.528 32 464 75.488 464 130.992V365.008Z" fill="#1E90FF"/>
<path d="M403.984 126.64C398.848 122.88 391.968 122.56 386.48 125.76C381.008 128.976 368.88 130.56 359.152 131.84C357.136 132.112 355.152 132.368 353.232 132.64C339.616 121.344 322.224 115.008 304.288 115.008C263.888 115.008 230.736 146.272 228.384 185.6C191.744 179.424 158.192 160.32 134.416 131.616C130.88 127.328 125.392 125.232 119.856 125.952C114.352 126.72 109.648 130.288 107.424 135.376C106.4 137.712 97.4722 159.68 97.4722 214.016C97.4722 261.072 134.608 295.648 160.08 313.84C142.656 321.76 122.576 324.672 103.504 322.56C96.0482 321.76 89.0722 326.144 86.6082 333.168C84.1442 340.208 86.8642 348.016 93.1682 352C123.248 370.976 158.016 381.008 193.728 381.008C308.416 381.008 377.824 290.912 380.4 202.08C383.696 197.296 389.984 187.984 400.608 171.648C404.864 165.072 408.432 150.896 410.176 143.04C411.568 136.832 409.12 130.384 403.984 126.64ZM351.536 187.536C349.568 190.256 348.496 193.552 348.496 196.912C348.496 260.064 300.48 349.008 193.744 349.008C184.096 349.008 174.528 348.128 165.152 346.4C177.664 341.664 189.488 335.056 200.352 326.688C204.704 323.344 207.024 317.968 206.512 312.512C206 307.056 202.72 302.224 197.808 299.744C197.12 299.392 129.488 263.824 129.488 214.032C129.488 197.344 130.384 184.224 131.568 174.24C162.976 201.28 202.944 217.456 245.008 219.536C245.328 219.552 245.664 219.568 245.968 219.552C255.28 219.28 262.128 212.448 262.128 203.552C262.128 201.344 261.68 199.248 260.864 197.328C260.464 194.928 260.256 192.512 260.256 190.096C260.256 166.336 280 147.008 304.288 147.008C316.48 147.008 328.208 152 336.48 160.688C340.256 164.624 345.776 166.4 351.104 165.36C354.736 164.672 358.928 164.128 363.328 163.552C364.896 163.344 366.48 163.136 368.096 162.912C356.08 181.216 351.744 187.248 351.536 187.536Z" fill="#1E90FF"/>
</svg>
